<svg xmlns="http://www.w3.org/2000/svg" viewBox="0 0 512 512">
  <rect width="512" height="512" rx="112" fill="#0f172a"/>
  <circle cx="256" cy="256" r="220" fill="none" stroke="#38bdf8" stroke-width="4" stroke-dasharray="10 10" opacity="0.3"/>
  <path d="M160 356c0-22.1 17.9-40 40-40h28c6.6 0 12 5.4 12 12v68c0 6.6-5.4 12-12 12h-28c-22.1 0-40-17.9-40-40em0H352v316h28c22.1 0 40 17.9 40 40v18c0 22.1-17.9 40-40 40h-28c-6.6 0-12-5.4-12-12v-68c0-6.6 5.4-12 12-12z" fill="#38bdf8"/>
  <path d="M196 316v92M364 316v92" stroke="#38bdf8" stroke-width="12" stroke-linecap="round"/>
  <path d="M200 316c0-30.9 4.9-61.1 14.4-89.5C237.3 160.1 300.2 128 364 128" stroke="#38bdf8" stroke-width="20" stroke-linecap="round" fill="none"/>
  <path d="M160 356c0-53 43-96 96-96s96 43 96 96" fill="none" stroke="#38bdf8" stroke-width="16" stroke-linecap="round"/>
  <circle cx="256" cy="356" r="16" fill="#f97316"/>
  <path d="M256 316c-10 0-18-8-18-18s8-18 18-18 18 8 18 18-8 18-18 18zm0-72c-50 0-90 40-90 90m180 0c0-50-40-90-90-90" fill="none" stroke="#f97316" stroke-width="6" stroke-dasharray="4 4" opacity="0.8"/>
</svg>